<svg width="20" height="20" viewBox="0 0 20 20" fill="none" xmlns="http://www.w3.org/2000/svg">
<path d="M2.08334 9.99992C2.08334 6.26797 2.08334 4.40199 3.24271 3.24262C4.40209 2.08325 6.26806 2.08325 10 2.08325C13.7319 2.08325 15.5979 2.08325 16.7573 3.24262C17.9167 4.40199 17.9167 6.26797 17.9167 9.99992C17.9167 13.7318 17.9167 15.5978 16.7573 16.7573C15.5979 17.9166 13.7319 17.9166 10 17.9166C6.26806 17.9166 4.40209 17.9166 3.24271 16.7573C2.08334 15.5978 2.08334 13.7318 2.08334 9.99992Z" stroke="#181C1F" stroke-width="1.25"/>
<path d="M10.0018 5.86523L10.0018 11.7405M10.0018 11.7405C10.2736 11.7441 10.5416 11.5574 10.7394 11.3294L12.064 9.84384M10.0018 11.7405C9.73968 11.737 9.47415 11.5512 9.26422 11.3294L7.93195 9.84384M6.65503 14.1986L13.3217 14.1986" stroke="#181C1F" stroke-width="1.25" stroke-linecap="round"/>
</svg>
