<svg width="25" height="24" viewBox="0 0 25 24" fill="none" xmlns="http://www.w3.org/2000/svg">
<path d="M23.417 12C23.417 17.9371 18.6041 22.75 12.667 22.75C6.72993 22.75 1.91699 17.9371 1.91699 12C1.91699 6.06294 6.72993 1.25 12.667 1.25C18.6041 1.25 23.417 6.06294 23.417 12ZM17.667 12C17.667 11.6174 17.5168 11.3021 17.3984 11.1025C17.2708 10.8873 17.1089 10.689 16.9521 10.5176C16.6382 10.1743 16.2432 9.83237 15.8965 9.54492L15.8594 9.51269C15.6393 9.33009 15.4059 9.13773 15.2041 9.00879C15.0574 8.91506 14.5146 8.56982 13.9053 8.87012C13.2965 9.17029 13.2175 9.82127 13.1963 9.99805C13.1673 10.2405 13.1669 10.5476 13.167 10.8379L13.167 11L8.66699 11C8.11471 11 7.66699 11.4477 7.66699 12C7.66699 12.5523 8.11471 13 8.66699 13L13.167 13L13.167 13.1621C13.1669 13.4524 13.1673 13.7595 13.1963 14.002C13.2175 14.1787 13.2965 14.8297 13.9053 15.1299C14.5146 15.4302 15.0574 15.0849 15.2041 14.9912C15.4059 14.8623 15.6393 14.6699 15.8594 14.4873L15.8965 14.4551C16.2432 14.1676 16.6382 13.8257 16.9521 13.4824C17.1089 13.311 17.2708 13.1127 17.3984 12.8975C17.5168 12.6979 17.667 12.3826 17.667 12Z" fill="#D2DFF2"/>
</svg>
