<svg width="24" height="24" viewBox="0 0 24 24" fill="none" xmlns="http://www.w3.org/2000/svg">
<path fill-rule="evenodd" clip-rule="evenodd" d="M8.39471 3.75C7.72769 3.75 7.14331 4.31698 7.14331 5.07145C7.14331 5.82472 7.72746 6.39193 8.39471 6.39193H11.0055C10.9009 6.09496 10.7623 5.75712 10.5847 5.42301C10.0722 4.45882 9.36561 3.75 8.39471 3.75ZM11.9976 7.14193C12.734 6.99957 12.7339 6.99932 12.7339 6.99905L12.7335 6.99692L12.7326 6.99276L12.7301 6.97996L12.721 6.93715C12.7133 6.90121 12.702 6.85074 12.6867 6.78779C12.6564 6.66204 12.6103 6.48562 12.5459 6.27524C12.4179 5.85721 12.2137 5.29163 11.9092 4.71892C11.3209 3.61215 10.226 2.25 8.39471 2.25C6.85114 2.25 5.64331 3.5375 5.64331 5.07145C5.64331 6.60466 6.85137 7.89193 8.39471 7.89193H11.9976C12.2215 7.89193 12.4336 7.79194 12.5761 7.61928C12.7186 7.44662 12.7764 7.21883 12.7339 6.99905L11.9976 7.14193Z" fill="#181C1F"/>
<path fill-rule="evenodd" clip-rule="evenodd" d="M12.0849 4.71883C12.6734 3.61209 13.7685 2.25 15.5997 2.25C17.1433 2.25 18.3511 3.5375 18.3511 5.07145C18.3511 6.60466 17.1431 7.89193 15.5997 7.89193H11.9961C11.7722 7.89193 11.5601 7.79192 11.4176 7.61923C11.2751 7.44655 11.2172 7.21924 11.2598 6.99944L11.9961 7.14193C11.2598 6.99944 11.2597 6.9997 11.2598 6.99944L11.26 6.99831L11.2603 6.9968L11.2611 6.99264L11.2637 6.97984L11.2727 6.93703C11.2805 6.90109 11.2918 6.85062 11.307 6.78767C11.3374 6.66192 11.3836 6.48551 11.448 6.27513C11.576 5.8571 11.7804 5.29153 12.0849 4.71883ZM12.9884 6.39193H15.5997C16.267 6.39193 16.8511 5.82472 16.8511 5.07145C16.8511 4.31698 16.2667 3.75 15.5997 3.75C14.6288 3.75 13.922 4.45888 13.4093 5.4231C13.2316 5.75718 13.093 6.09498 12.9884 6.39193Z" fill="#181C1F"/>
<path fill-rule="evenodd" clip-rule="evenodd" d="M4.01529 7.72886C4.77116 6.8716 5.85375 6.39062 7.12776 6.39062H16.873C18.1466 6.39062 19.229 6.87168 19.9847 7.72891C20.7316 8.57627 21.1091 9.73221 21.1091 11.0101V17.1281C21.1091 18.4074 20.7295 19.5635 19.9818 20.4106C19.2257 21.2672 18.1437 21.7486 16.873 21.7486H7.12677C5.85314 21.7486 4.77078 21.2676 4.01507 20.4102C3.26808 19.5627 2.89062 18.4065 2.89062 17.1281V11.0101C2.89062 9.73221 3.26813 8.57623 4.01529 7.72886ZM5.14039 8.7209C4.68155 9.24127 4.39063 10.0201 4.39063 11.0101V17.1281C4.39063 18.1188 4.6816 18.8978 5.14036 19.4183C5.5904 19.9289 6.25111 20.2486 7.12677 20.2486H16.873C17.7447 20.2486 18.4059 19.9293 18.8572 19.4179C19.317 18.897 19.6091 18.1178 19.6091 17.1281V11.0101C19.6091 10.0201 19.3182 9.24125 18.8595 8.72085C18.4094 8.21034 17.7487 7.89062 16.873 7.89062H7.12776C6.2515 7.89062 5.59051 8.2104 5.14039 8.7209Z" fill="#181C1F"/>
<path fill-rule="evenodd" clip-rule="evenodd" d="M10.0539 16.7981C9.73995 16.7981 9.45922 16.6025 9.3504 16.3081L9.24939 16.0347C8.94429 15.2089 8.29438 14.5583 7.47058 14.253L7.1976 14.1519C6.90347 14.0429 6.70825 13.7623 6.70825 13.4486C6.70825 13.1349 6.90347 12.8544 7.1976 12.7454L7.47053 12.6442C8.29433 12.3389 8.94428 11.6883 9.24938 10.8626L9.35039 10.5892C9.45921 10.2947 9.73994 10.0991 10.0539 10.0991C10.3679 10.0991 10.6486 10.2947 10.7574 10.5892L10.8585 10.8626C11.1636 11.6883 11.8134 12.3389 12.6372 12.6442L12.9102 12.7453C13.2044 12.8543 13.3997 13.1349 13.3997 13.4486C13.3997 13.7623 13.2044 14.0429 12.9102 14.1519L12.6373 14.253C11.8135 14.5583 11.1636 15.2089 10.8585 16.0347L10.7574 16.3081C10.6486 16.6025 10.3679 16.7981 10.0539 16.7981ZM11.0026 13.4486C10.6409 13.1812 10.3211 12.8611 10.0539 12.4991C9.78676 12.8611 9.46695 13.1812 9.10525 13.4486C9.46695 13.716 9.78676 14.0361 10.0539 14.3981C10.3211 14.0361 10.6409 13.716 11.0026 13.4486Z" fill="#181C1F"/>
<path fill-rule="evenodd" clip-rule="evenodd" d="M15.3648 18.0402C15.0346 18.0402 14.7433 17.8242 14.6472 17.5082C14.5482 17.1824 14.2938 16.928 13.9695 16.8291C13.6538 16.7329 13.4382 16.4417 13.4382 16.1117C13.4382 15.7817 13.6538 15.4906 13.9695 15.3944C14.2938 15.2955 14.5482 15.0411 14.6472 14.7153C14.7433 14.3993 15.0346 14.1833 15.3648 14.1833C15.695 14.1833 15.9864 14.3993 16.0824 14.7153C16.1815 15.0411 16.4359 15.2955 16.7602 15.3944C17.0758 15.4906 17.2915 15.7817 17.2915 16.1117C17.2915 16.4417 17.0758 16.7329 16.7602 16.8291C16.4359 16.928 16.1815 17.1824 16.0824 17.5082C15.9864 17.8242 15.695 18.0402 15.3648 18.0402Z" fill="#181C1F"/>
</svg>
