<svg width="32" height="32" viewBox="0 0 32 32" fill="none" xmlns="http://www.w3.org/2000/svg">
<path fill-rule="evenodd" clip-rule="evenodd" d="M16.1666 10.5C13.1288 10.5 10.6666 12.9622 10.6666 16C10.6666 19.0378 13.1288 21.5 16.1666 21.5C19.2044 21.5 21.6666 19.0378 21.6666 16C21.6666 12.9622 19.2044 10.5 16.1666 10.5ZM9.66663 16C9.66663 12.4099 12.5765 9.5 16.1666 9.5C19.7567 9.5 22.6666 12.4099 22.6666 16C22.6666 19.5901 19.7567 22.5 16.1666 22.5C12.5765 22.5 9.66663 19.5901 9.66663 16Z" fill="black"/>
<path fill-rule="evenodd" clip-rule="evenodd" d="M15.0556 11.9317C14.6771 12.9485 14.433 14.3867 14.433 16C14.433 17.6133 14.6771 19.0515 15.0556 20.0683C15.2455 20.5786 15.4597 20.9567 15.6722 21.1982C15.8854 21.4405 16.0536 21.5 16.1663 21.5C16.2789 21.5 16.4472 21.4405 16.6604 21.1982C16.8729 20.9567 17.087 20.5786 17.277 20.0683C17.6554 19.0515 17.8996 17.6133 17.8996 16C17.8996 14.3867 17.6554 12.9485 17.277 11.9317C17.087 11.4214 16.8729 11.0433 16.6604 10.8018C16.4472 10.5596 16.2789 10.5 16.1663 10.5C16.0536 10.5 15.8854 10.5596 15.6722 10.8018C15.4597 11.0433 15.2455 11.4214 15.0556 11.9317ZM14.9215 10.1411C15.2427 9.77619 15.662 9.5 16.1663 9.5C16.6705 9.5 17.0898 9.77619 17.411 10.1411C17.733 10.5069 18 11.0074 18.2142 11.5829C18.6439 12.7376 18.8996 14.2993 18.8996 16C18.8996 17.7007 18.6439 19.2625 18.2142 20.4171C18 20.9926 17.733 21.4931 17.411 21.8589C17.0898 22.2238 16.6705 22.5 16.1663 22.5C15.662 22.5 15.2427 22.2238 14.9215 21.8589C14.5996 21.4931 14.3326 20.9926 14.1184 20.4171C13.6886 19.2625 13.433 17.7007 13.433 16C13.433 14.2993 13.6886 12.7376 14.1184 11.5829C14.3326 11.0074 14.5996 10.5069 14.9215 10.1411Z" fill="black"/>
<path fill-rule="evenodd" clip-rule="evenodd" d="M9.66663 16C9.66663 15.7239 9.89049 15.5 10.1666 15.5H22.1666C22.4428 15.5 22.6666 15.7239 22.6666 16C22.6666 16.2761 22.4428 16.5 22.1666 16.5H10.1666C9.89049 16.5 9.66663 16.2761 9.66663 16Z" fill="black"/>
</svg>
