<svg width="20" height="20" viewBox="0 0 20 20" fill="none" xmlns="http://www.w3.org/2000/svg">
<path d="M7.60227 6.25977H12.3982C14.075 6.25977 15.1177 7.44274 15.1177 9.11783V12.4243C15.1177 14.0995 14.075 15.2825 12.3974 15.2825H7.60227C5.92632 15.2825 4.88281 14.0995 4.88281 12.4243V9.11783C4.88281 7.44274 5.93119 6.25977 7.60227 6.25977Z" stroke="black" stroke-width="1.25" stroke-linecap="round" stroke-linejoin="round"/>
<path d="M8.87207 12.103C9.62365 12.4314 10.3753 12.4314 11.1269 12.103" stroke="black" stroke-width="1.25" stroke-linecap="round" stroke-linejoin="round"/>
<path d="M11.8391 9.17484V9.1665" stroke="black" stroke-width="1.25" stroke-linecap="round" stroke-linejoin="round"/>
<path d="M8.16077 9.17484V9.1665" stroke="black" stroke-width="1.25" stroke-linecap="round" stroke-linejoin="round"/>
<path d="M4.88295 9.1665H4.68674C3.84187 9.1665 3.15674 9.85084 3.15674 10.6957C3.15674 11.5406 3.84187 12.2257 4.68674 12.2257H4.88295" stroke="black" stroke-width="1.25" stroke-linecap="round" stroke-linejoin="round"/>
<path d="M15.1172 9.1665H15.3143C16.1591 9.1665 16.8434 9.85084 16.8434 10.6957C16.8434 11.5406 16.1591 12.2257 15.3143 12.2257H15.1172" stroke="black" stroke-width="1.25" stroke-linecap="round" stroke-linejoin="round"/>
<path fill-rule="evenodd" clip-rule="evenodd" d="M11.0291 3.52892C11.0291 2.96054 10.5686 2.5 10.0002 2.5C9.4319 2.5 8.97131 2.96054 8.97131 3.52892C8.97131 4.0973 9.4319 4.55791 10.0003 4.55791C10.5686 4.55791 11.0291 4.0973 11.0291 3.52892Z" stroke="black" stroke-width="1.25" stroke-linecap="round" stroke-linejoin="round"/>
<path d="M10 6.25821V4.55713" stroke="black" stroke-width="1.25" stroke-linecap="round" stroke-linejoin="round"/>
<path d="M7.21521 17.5H12.7863" stroke="black" stroke-width="1.25" stroke-linecap="round" stroke-linejoin="round"/>
</svg>
