<svg width="20" height="20" viewBox="0 0 20 20" fill="none" xmlns="http://www.w3.org/2000/svg">
<path fill-rule="evenodd" clip-rule="evenodd" d="M2.5 5.41667C2.5 3.22899 2.52342 2.5 5.41667 2.5C8.30991 2.5 8.33333 3.22899 8.33333 5.41667C8.33333 7.60434 8.34256 8.33333 5.41667 8.33333C2.49077 8.33333 2.5 7.60434 2.5 5.41667Z" stroke="#181C1F" stroke-width="1.25" stroke-linecap="round" stroke-linejoin="round"/>
<path fill-rule="evenodd" clip-rule="evenodd" d="M11.6667 5.41667C11.6667 3.22899 11.6901 2.5 14.5834 2.5C17.4766 2.5 17.5 3.22899 17.5 5.41667C17.5 7.60434 17.5092 8.33333 14.5834 8.33333C11.6575 8.33333 11.6667 7.60434 11.6667 5.41667Z" stroke="#181C1F" stroke-width="1.25" stroke-linecap="round" stroke-linejoin="round"/>
<path fill-rule="evenodd" clip-rule="evenodd" d="M2.5 14.5832C2.5 12.3955 2.52342 11.6665 5.41667 11.6665C8.30991 11.6665 8.33333 12.3955 8.33333 14.5832C8.33333 16.7708 8.34256 17.4998 5.41667 17.4998C2.49077 17.4998 2.5 16.7708 2.5 14.5832Z" stroke="#181C1F" stroke-width="1.25" stroke-linecap="round" stroke-linejoin="round"/>
<path fill-rule="evenodd" clip-rule="evenodd" d="M11.6667 14.5832C11.6667 12.3955 11.6901 11.6665 14.5834 11.6665C17.4766 11.6665 17.5 12.3955 17.5 14.5832C17.5 16.7708 17.5092 17.4998 14.5834 17.4998C11.6575 17.4998 11.6667 16.7708 11.6667 14.5832Z" stroke="#181C1F" stroke-width="1.25" stroke-linecap="round" stroke-linejoin="round"/>
</svg>
