<svg width="32" height="32" viewBox="0 0 32 32" fill="none" xmlns="http://www.w3.org/2000/svg">
<path d="M12.6666 12.6667C15.2592 11.7778 16.7407 11.7778 19.3333 12.6667" stroke="black" stroke-width="1.2" stroke-linecap="round" stroke-linejoin="round"/>
<path d="M12.6666 19.3335C15 20.2224 17 20.2224 19.3333 19.3335" stroke="black" stroke-width="1.2" stroke-linecap="round" stroke-linejoin="round"/>
<path d="M13.9047 19.75C13.9047 20.5 12.4907 22 12.1281 22C11.0393 22 10.0725 20.7498 9.58869 19.75C9.10489 18.4998 9.22603 15.3753 10.6767 11.125C11.7342 10.3637 12.7963 10.12 13.9048 10L14.6667 12" stroke="black" stroke-width="1.2" stroke-linecap="round" stroke-linejoin="round"/>
<path d="M18.0953 19.75C18.0953 20.5 19.5093 22 19.8719 22C20.9607 22 21.9275 20.7498 22.4113 19.75C22.8951 18.4998 22.774 15.3753 21.3233 11.125C20.2658 10.3637 19.2037 10.12 18.0952 10L17.3333 12" stroke="black" stroke-width="1.2" stroke-linecap="round" stroke-linejoin="round"/>
<path d="M13.0067 16H13M19 16H18.9933" stroke="black" stroke-width="1.2" stroke-linecap="round" stroke-linejoin="round"/>
</svg>
