<svg width="20" height="20" viewBox="0 0 20 20" fill="none" xmlns="http://www.w3.org/2000/svg">
<path d="M9.42204 17.4913C5.55728 17.1791 2.52771 13.9468 2.52771 10.0033C2.52771 5.86528 5.88488 2.5 10.031 2.5C13.865 2.5 17.0187 5.37387 17.472 9.08217" stroke="black" stroke-width="1.25" stroke-linecap="round" stroke-linejoin="round"/>
<path d="M12.646 7.39547C12.2551 4.53782 11.2325 2.5 10.03 2.5C8.83549 2.5 7.80482 4.53782 7.41477 7.39547C7.29718 8.20719 7.23474 9.08133 7.23474 10.0033C7.23474 10.9246 7.29718 11.8068 7.41477 12.6186C7.68804 14.602 8.53141 16.515 9.42099 17.4905" stroke="black" stroke-width="1.25" stroke-linecap="round" stroke-linejoin="round"/>
<path d="M2.52771 10.0103H8.72296" stroke="black" stroke-width="1.25" stroke-linecap="round" stroke-linejoin="round"/>
<path d="M15.4285 12.3521L15.5126 12.5799C15.83 13.4389 16.5063 14.1161 17.3641 14.434L17.5915 14.5183L17.3641 14.6026C16.5063 14.9205 15.83 15.5977 15.5126 16.4567L15.4285 16.6846L15.3443 16.4567C15.0269 15.5977 14.3506 14.9205 13.4929 14.6026L13.2654 14.5183L13.4929 14.434C14.3506 14.1161 15.0269 13.4389 15.3443 12.5799L15.4285 12.3521Z" stroke="black" stroke-width="1.25" stroke-linecap="round" stroke-linejoin="round"/>
<path d="M11.0028 11.3169C11.1458 11.7875 11.5136 12.1557 11.9834 12.299C11.5136 12.4421 11.1458 12.8105 11.0028 13.281C10.8598 12.8105 10.4921 12.4421 10.0222 12.299C10.4921 12.1557 10.8598 11.7875 11.0028 11.3169Z" stroke="black" stroke-width="1.25" stroke-linecap="round" stroke-linejoin="round"/>
</svg>
