<svg width="20" height="20" viewBox="0 0 20 20" fill="none" xmlns="http://www.w3.org/2000/svg">
<path fill-rule="evenodd" clip-rule="evenodd" d="M8.19288 11.8062C7.7194 11.3335 6.95242 11.3335 6.47975 11.8062C6.00626 12.2788 6.00626 13.0466 6.47975 13.5192C6.95242 13.9927 7.7194 13.9927 8.19288 13.5192C8.66555 13.0466 8.66555 12.2788 8.19288 11.8062Z" stroke="black" stroke-width="1.25" stroke-linecap="round" stroke-linejoin="round"/>
<path d="M3.27885 10.0116L7.56451 5.72593C8.66312 4.62736 10.1233 4.71897 11.2202 5.81674L14.1827 8.77841C15.2805 9.87616 15.3721 11.3356 14.2727 12.4349L9.98787 16.7198C8.88929 17.8192 7.42993 17.7267 6.33216 16.629L3.37047 13.6673C2.2727 12.5695 2.18352 11.1069 3.27885 10.0116Z" stroke="black" stroke-width="1.25" stroke-linecap="round" stroke-linejoin="round"/>
<path d="M14.9016 9.85925L16.9455 7.81535C17.7278 7.03297 17.6597 5.99358 16.8831 5.21769L14.7823 3.11701C14.0057 2.3403 12.9671 2.2722 12.1847 3.05377L10.1407 5.0985" stroke="black" stroke-width="1.25" stroke-linecap="round" stroke-linejoin="round"/>
<path d="M13.4774 5.02786L13.4858 5.01953" stroke="black" stroke-width="1.25" stroke-linecap="round" stroke-linejoin="round"/>
<path d="M14.9438 6.49613L14.9522 6.48779" stroke="black" stroke-width="1.25" stroke-linecap="round" stroke-linejoin="round"/>
</svg>
