<svg width="20" height="20" viewBox="0 0 20 20" fill="none" xmlns="http://www.w3.org/2000/svg">
<path d="M7.13508 11.0541C9.10527 11.0541 10.7024 9.45695 10.7024 7.48677C10.7024 5.51658 9.10527 3.91943 7.13508 3.91943C5.1649 3.91943 3.56775 5.51658 3.56775 7.48677C3.56775 9.45695 5.1649 11.0541 7.13508 11.0541Z" stroke="black" stroke-width="1.25" stroke-linecap="round" stroke-linejoin="round"/>
<path d="M2.26511 16.0832C2.18099 15.5989 2.21573 15.0969 2.21573 14.6078C2.21573 12.7641 3.71029 11.2695 5.55393 11.2695H8.80454C10.6481 11.2695 12.1427 12.7641 12.1427 14.6078C12.1427 15.0969 12.1775 15.5989 12.0934 16.0832" stroke="black" stroke-width="1.25" stroke-linecap="round" stroke-linejoin="round"/>
<path d="M14.5191 12.082C15.8671 12.082 16.9598 10.9893 16.9598 9.64133C16.9598 8.2934 15.8671 7.20068 14.5191 7.20068C13.1712 7.20068 12.0785 8.2934 12.0785 9.64133C12.0785 10.9893 13.1712 12.082 14.5191 12.082Z" stroke="black" stroke-width="1.25" stroke-linecap="round" stroke-linejoin="round"/>
<path d="M18.0025 15.6145C18.0616 15.2742 18.0372 14.9217 18.0372 14.578C18.0372 13.2828 16.9873 12.2329 15.6921 12.2329H13.4086C12.7465 12.2329 12.1485 12.5073 11.722 12.9486" stroke="black" stroke-width="1.25" stroke-linecap="round" stroke-linejoin="round"/>
</svg>
