<svg width="16" height="17" viewBox="0 0 16 17" fill="none" xmlns="http://www.w3.org/2000/svg">
<path d="M8.49364 3.31854L13.9236 12.8321C13.9737 12.9197 14 13.0191 14 13.1204C14 13.2216 13.9737 13.321 13.9236 13.4086C13.8736 13.4963 13.8017 13.5691 13.715 13.6197C13.6283 13.6703 13.5301 13.6969 13.43 13.6969H2.57C2.46995 13.6969 2.37165 13.6703 2.285 13.6197C2.19835 13.5691 2.12639 13.4963 2.07636 13.4086C2.02634 13.321 2 13.2216 2 13.1204C2 13.0191 2.02634 12.9197 2.07637 12.8321L7.50636 3.31854C7.5564 3.23089 7.62835 3.15811 7.715 3.10751C7.80165 3.05691 7.89995 3.03027 8 3.03027C8.10005 3.03027 8.19835 3.05691 8.285 3.10751C8.37165 3.15811 8.4436 3.23089 8.49364 3.31854ZM7.42998 10.8141V11.9672H8.57002V10.8141H7.42998ZM7.42998 6.778V9.66089H8.57002V6.778H7.42998Z" fill="#FF8447"/>
</svg>
