<svg width="32" height="32" viewBox="0 0 32 32" fill="none" xmlns="http://www.w3.org/2000/svg">
<g filter="url(#filter0_d_3330_40044)">
<path d="M16 0C22.6274 0 28 5.37258 28 12C28 18.6274 22.6274 24 16 24C9.37258 24 4 18.6274 4 12C4 5.37258 9.37258 0 16 0ZM16 6.2998C15.6235 6.29986 15.287 6.53463 15.1562 6.8877L14.8027 7.84375C14.3103 9.17445 14.1428 9.57209 13.8574 9.85742C13.5721 10.1428 13.1745 10.3103 11.8438 10.8027L10.8877 11.1562C10.5346 11.287 10.2999 11.6235 10.2998 12C10.2998 12.3765 10.5346 12.713 10.8877 12.8438L11.8438 13.1982C13.1743 13.6906 13.5721 13.8582 13.8574 14.1436C14.1425 14.4289 14.3106 14.8262 14.8027 16.1562L15.1562 17.1123C15.2869 17.4655 15.6235 17.7001 16 17.7002C16.3766 17.7002 16.7131 17.4655 16.8438 17.1123L17.1982 16.1562C17.6905 14.8258 17.8582 14.4289 18.1436 14.1436C18.4289 13.8583 18.8258 13.6905 20.1562 13.1982L21.1123 12.8438C21.4655 12.7131 21.7002 12.3766 21.7002 12C21.7001 11.6235 21.4655 11.2869 21.1123 11.1562L20.1562 10.8027C18.8262 10.3106 18.4289 10.1425 18.1436 9.85742C17.8582 9.5721 17.6906 9.17435 17.1982 7.84375L16.8438 6.8877C16.713 6.53463 16.3765 6.2998 16 6.2998Z" fill="#246BEE"/>
</g>
<defs>
<filter id="filter0_d_3330_40044" x="0.171207" y="0" width="31.6576" height="31.8288" filterUnits="userSpaceOnUse" color-interpolation-filters="sRGB">
<feFlood flood-opacity="0" result="BackgroundImageFix"/>
<feColorMatrix in="SourceAlpha" type="matrix" values="0 0 0 0 0 0 0 0 0 0 0 0 0 0 0 0 0 0 127 0" result="hardAlpha"/>
<feOffset dy="4"/>
<feGaussianBlur stdDeviation="1.9144"/>
<feColorMatrix type="matrix" values="0 0 0 0 0.341176 0 0 0 0 0.694118 0 0 0 0 1 0 0 0 0.153301 0"/>
<feBlend mode="normal" in2="BackgroundImageFix" result="effect1_dropShadow_3330_40044"/>
<feBlend mode="normal" in="SourceGraphic" in2="effect1_dropShadow_3330_40044" result="shape"/>
</filter>
</defs>
</svg>
