<svg width="16" height="17" viewBox="0 0 16 17" fill="none" xmlns="http://www.w3.org/2000/svg">
<path fill-rule="evenodd" clip-rule="evenodd" d="M8.16669 3C5.12888 3 2.66669 5.46219 2.66669 8.5C2.66669 11.5372 5.12892 14 8.16669 14C11.2045 14 13.6667 11.5372 13.6667 8.5C13.6667 5.46219 11.2045 3 8.16669 3ZM1.66669 8.5C1.66669 4.90991 4.5766 2 8.16669 2C11.7568 2 14.6667 4.90991 14.6667 8.5C14.6667 12.0894 11.7568 15 8.16669 15C4.57656 15 1.66669 12.0894 1.66669 8.5Z" fill="black"/>
<path fill-rule="evenodd" clip-rule="evenodd" d="M8.16669 5.52734C8.44282 5.52734 8.66669 5.7512 8.66669 6.02734V6.0695C8.66669 6.34564 8.44282 6.5695 8.16669 6.5695C7.89055 6.5695 7.66669 6.34564 7.66669 6.0695V6.02734C7.66669 5.7512 7.89055 5.52734 8.16669 5.52734ZM8.17049 7.59573C8.44662 7.59573 8.67049 7.8196 8.67049 8.09573V10.9621C8.67049 11.2383 8.44662 11.4621 8.17049 11.4621C7.89435 11.4621 7.67049 11.2383 7.67049 10.9621V8.09573C7.67049 7.8196 7.89435 7.59573 8.17049 7.59573Z" fill="black"/>
</svg>
