<svg width="64" height="64" viewBox="0 0 64 64" fill="none" xmlns="http://www.w3.org/2000/svg">
<path d="M30.0189 55.6013C29.4885 55.6013 28.9797 55.3907 28.6048 55.0155C28.2296 54.6405 28.0189 54.1317 28.0189 53.6013C28.0189 53.0709 28.2296 52.5621 28.6048 52.1872C28.9797 51.812 29.4885 51.6013 30.0189 51.6013H44.4456H44.4723C45.7512 51.6235 47.0216 51.3883 48.208 50.9101C49.3944 50.4317 50.4728 49.7203 51.3789 48.8173C52.4661 47.6757 53.3163 46.3301 53.8805 44.8581C54.4448 43.3861 54.712 41.8171 54.6669 40.2413V23.7613C54.6669 17.172 50.3683 12.3906 44.4456 12.3906H20.8854C14.9628 12.3906 10.6668 17.172 10.6668 23.7613V28.2413C10.6668 28.7717 10.4561 29.2805 10.0811 29.6555C9.70599 30.0307 9.19727 30.2413 8.66684 30.2413C8.13639 30.2413 7.62767 30.0307 7.2526 29.6555C6.87754 29.2805 6.66684 28.7717 6.66684 28.2413V23.7613C6.54927 21.8087 6.82796 19.8525 7.48618 18.0104C8.14436 16.1683 9.16839 14.4784 10.4967 13.0424C11.8251 11.6064 13.4303 10.454 15.2157 9.65462C17.001 8.85518 18.9296 8.42524 20.8854 8.39062H44.4456C46.4013 8.42524 48.3301 8.85518 50.1157 9.6546C51.9013 10.454 53.5067 11.6063 54.8352 13.0423C56.1637 14.4782 57.188 16.1681 57.8464 18.0102C58.5051 19.8523 58.784 21.8085 58.6669 23.7613V40.2413C58.7128 42.3421 58.3419 44.4309 57.5749 46.3872C56.8083 48.3437 55.6613 50.1285 54.2003 51.6387C52.9269 52.9152 51.4104 53.9227 49.74 54.6016C48.0699 55.2805 46.2803 55.6168 44.4776 55.5907H44.44H30.0189V55.6013Z" fill="#181C1F"/>
<path d="M32.5928 36.3076C30.8955 36.306 29.2488 35.7297 27.9205 34.6729L17.238 25.9849C17.0342 25.8191 16.8651 25.6147 16.7403 25.3835C16.6155 25.1523 16.5374 24.8988 16.5105 24.6375C16.4836 24.3761 16.5085 24.112 16.5837 23.8603C16.6589 23.6085 16.783 23.374 16.9488 23.1702C17.1146 22.9664 17.3188 22.7972 17.55 22.6724C17.7812 22.5475 18.0348 22.4695 18.2961 22.4426C18.5575 22.4158 18.8215 22.4406 19.0733 22.5158C19.3251 22.591 19.5596 22.7151 19.7634 22.8809L30.4301 31.5529C31.0512 32.0436 31.8203 32.3089 32.6115 32.306C33.4029 32.303 34.1699 32.0321 34.7875 31.5369L45.5312 22.8755C45.7357 22.7106 45.9709 22.5876 46.2229 22.5134C46.4749 22.4393 46.7392 22.4156 47.0003 22.4435C47.2616 22.4715 47.5149 22.5507 47.7456 22.6765C47.9763 22.8023 48.1797 22.9724 48.3448 23.1769C48.5096 23.3814 48.6325 23.6164 48.7067 23.8685C48.7808 24.1205 48.8048 24.3847 48.7768 24.6459C48.7488 24.9072 48.6696 25.1604 48.5437 25.391C48.4179 25.6217 48.248 25.8253 48.0435 25.9902L37.2861 34.6622C35.9531 35.7265 34.2984 36.3068 32.5928 36.3076Z" fill="#181C1F"/>
<path d="M9.44207 55.6102C8.91162 55.6102 8.4029 55.3995 8.02783 55.0243C7.65276 54.6491 7.44207 54.1406 7.44207 53.6102C7.44207 53.0798 7.65276 52.571 8.02783 52.1958C8.4029 51.8209 8.91162 51.6102 9.44207 51.6102H17.8927C18.4232 51.6102 18.9319 51.8209 19.307 52.1958C19.682 52.571 19.8927 53.0798 19.8927 53.6102C19.8927 54.1406 19.682 54.6491 19.307 55.0243C18.9319 55.3995 18.4232 55.6102 17.8927 55.6102H9.44207ZM26.6393 47.6502H15.0661C14.5356 47.6502 14.0269 47.4395 13.6519 47.0643C13.2768 46.6891 13.0661 46.1806 13.0661 45.6502C13.0661 45.1198 13.2768 44.611 13.6519 44.2358C14.0269 43.8609 14.5356 43.6502 15.0661 43.6502H26.6527C27.1831 43.6502 27.6919 43.8609 28.0668 44.2358C28.442 44.611 28.6527 45.1198 28.6527 45.6502C28.6527 46.1806 28.442 46.6891 28.0668 47.0643C27.6919 47.4395 27.1831 47.6502 26.6527 47.6502H26.6393ZM17.9274 39.6929H8.66602C8.13559 39.6929 7.62687 39.4822 7.2518 39.107C6.87671 38.7318 6.66602 38.2233 6.66602 37.6929C6.66602 37.1625 6.87671 36.6537 7.2518 36.2785C7.62687 35.9035 8.13559 35.6929 8.66602 35.6929H17.9274C18.4578 35.6929 18.9665 35.9035 19.3416 36.2785C19.7167 36.6537 19.9274 37.1625 19.9274 37.6929C19.9274 38.2233 19.7167 38.7318 19.3416 39.107C18.9665 39.4822 18.4578 39.6929 17.9274 39.6929Z" fill="#181C1F"/>
</svg>
