<svg width="25" height="24" viewBox="0 0 25 24" fill="none" xmlns="http://www.w3.org/2000/svg">
<g clip-path="url(#clip0_685_63307)">
<mask id="mask0_685_63307" style="mask-type:luminance" maskUnits="userSpaceOnUse" x="4" y="3" width="17" height="18">
<path d="M20.5666 10.4419H12.6758V13.6715H17.2101C17.1371 14.1285 16.9733 14.5781 16.7341 14.9879C16.4593 15.4578 16.12 15.8154 15.7722 16.0877C14.7301 16.9036 13.5149 17.0704 12.6708 17.0704C10.5386 17.0704 8.71744 15.6632 8.01202 13.7506C7.9838 13.6813 7.96479 13.6096 7.94148 13.5384C7.78567 13.052 7.70041 12.5361 7.70041 12.0006C7.70041 11.4651 7.79242 10.9093 7.96049 10.4051C8.62359 8.41706 10.4865 6.932 12.6721 6.932C13.1119 6.932 13.5351 6.98537 13.9363 7.0921C14.854 7.33563 15.503 7.81531 15.9004 8.19501L18.3001 5.79475C16.8396 4.42808 14.9368 3.59998 12.6672 3.59998C10.8527 3.59998 9.17749 4.17719 7.80469 5.15312C6.69135 5.94442 5.7786 7.00377 5.16213 8.23427C4.58982 9.37521 4.27576 10.6401 4.27576 11.9994C4.27576 13.3587 4.58982 14.6364 5.16336 15.7669V15.7743C5.76879 16.9741 6.65394 18.0077 7.72985 18.7953C8.66959 19.4835 10.3552 20.4 12.6672 20.4C13.997 20.4 15.1754 20.1552 16.2145 19.6964C16.9641 19.3652 17.6284 18.9333 18.2302 18.3788C19.0251 17.6458 19.6471 16.7385 20.0722 15.6951C20.4973 14.6517 20.7243 13.4715 20.7243 12.1926C20.7243 11.597 20.6654 10.9915 20.5666 10.4419Z" fill="white"/>
</mask>
<g mask="url(#mask0_685_63307)">
<path d="M4.15424 12.0563C4.16282 13.3941 4.53639 14.7749 5.10134 15.8895V15.8974C5.50987 16.7065 6.06745 17.3463 6.70294 17.9793L10.5416 16.5489C9.81537 16.1722 9.70435 15.941 9.18418 15.5202C8.65235 14.9724 8.25548 14.3431 8.00889 13.6057H7.99907L8.00889 13.5978C7.84633 13.1107 7.83039 12.5936 7.82425 12.0563H4.15424Z" fill="url(#paint0_radial_685_63307)"/>
<path d="M12.6746 3.53851C12.2949 4.89966 12.4402 6.2234 12.6746 6.99322C13.1125 6.99322 13.5346 7.0472 13.9351 7.15332C14.8528 7.39685 15.5011 7.87653 15.8992 8.25623L18.3602 5.79463C16.9022 4.42979 15.1478 3.54097 12.6746 3.53851Z" fill="url(#paint1_radial_685_63307)"/>
<path d="M12.667 3.52795C10.8059 3.52795 9.08778 4.11989 7.68001 5.12097C7.15739 5.4927 6.67771 5.92208 6.25016 6.39931C6.13852 7.47155 7.08808 8.78976 8.96817 8.77872C9.88031 7.69483 11.2298 6.99309 12.732 6.99309C12.7333 6.99309 12.7345 6.99309 12.7363 6.99309L12.675 3.52795C12.675 3.52795 12.6695 3.52795 12.667 3.52795Z" fill="url(#paint2_radial_685_63307)"/>
<path d="M18.8087 12.4446L17.1476 13.6101C17.0746 14.0671 16.9109 14.5167 16.671 14.9265C16.3962 15.3963 16.057 15.7539 15.7092 16.0263C14.6689 16.8403 13.4568 17.0078 12.6133 17.009C11.7411 18.5259 11.5883 19.2859 12.6747 20.5103C14.0186 20.5091 15.2105 20.2613 16.2619 19.7975C17.0219 19.462 17.6948 19.0246 18.3045 18.4621C19.1099 17.7193 19.7405 16.7998 20.1711 15.7423C20.6017 14.6848 20.8318 13.4892 20.8318 12.1925L18.8087 12.4446Z" fill="url(#paint3_radial_685_63307)"/>
<path d="M12.5519 10.319V13.7939H20.5434C20.6139 13.3179 20.8464 12.7021 20.8464 12.1923C20.8464 11.5967 20.7881 10.8686 20.6887 10.319H12.5525H12.5519Z" fill="#3086FF"/>
<path d="M6.28774 6.27661C5.79456 6.82745 5.37315 7.44454 5.03945 8.11193C4.46653 9.25225 4.15247 10.6398 4.15247 11.9991C4.15247 12.0181 4.15431 12.0371 4.15431 12.0561C4.40826 12.553 7.66054 12.4579 7.82432 12.0561C7.82432 12.0371 7.82187 12.0193 7.82187 12.0003C7.82187 11.4427 7.91388 11.0317 8.08195 10.5275C8.28928 9.90553 8.61378 9.33322 9.02905 8.84004C9.12291 8.71736 9.3744 8.45359 9.4474 8.29534C9.475 8.23522 9.39648 8.20148 9.39219 8.18001C9.38728 8.15609 9.28178 8.17511 9.25847 8.15793C9.18363 8.1015 9.03519 8.07267 8.94502 8.04629C8.75241 7.99047 8.43344 7.86779 8.25616 7.7402C7.69612 7.33781 6.8214 6.85689 6.28774 6.27661Z" fill="url(#paint4_radial_685_63307)"/>
<path d="M8.26851 8.18193C9.5677 8.98611 9.94127 7.77647 10.8056 7.39739L9.30271 4.21442C8.75003 4.45181 8.22741 4.74624 7.74282 5.09098C7.019 5.60562 6.37983 6.23314 5.85229 6.94776L8.26851 8.18193Z" fill="url(#paint5_radial_685_63307)"/>
<path d="M8.79747 16.3029C7.05355 16.9457 6.77997 16.969 6.61987 18.0731C6.92658 18.3792 7.25659 18.662 7.60685 18.9184C8.54659 19.6067 10.3549 20.5231 12.6668 20.5231C12.6693 20.5231 12.6724 20.5231 12.6748 20.5231V16.9475C12.6748 16.9475 12.6711 16.9475 12.6693 16.9475C11.8032 16.9475 11.1112 16.7151 10.4021 16.3114C10.2273 16.2121 9.91019 16.4795 9.74886 16.3599C9.5262 16.1949 8.99069 16.5022 8.79808 16.3035L8.79747 16.3029Z" fill="url(#paint6_radial_685_63307)"/>
<path opacity="0.5" d="M11.6537 16.8347V20.4605C11.977 20.4992 12.3137 20.5225 12.667 20.5225C13.0204 20.5225 13.3639 20.5041 13.6963 20.4697V16.8586C13.3234 16.9236 12.9719 16.9469 12.6695 16.9469C12.3211 16.9469 11.9819 16.9052 11.6537 16.834V16.8347Z" fill="url(#paint7_linear_685_63307)"/>
</g>
</g>
<defs>
<radialGradient id="paint0_radial_685_63307" cx="0" cy="0" r="1" gradientUnits="userSpaceOnUse" gradientTransform="translate(10.3858 17.8495) rotate(-92.34) scale(8.37231 12.3174)">
<stop offset="0.14" stop-color="#1ABD4D"/>
<stop offset="0.25" stop-color="#6EC30D"/>
<stop offset="0.31" stop-color="#8AC502"/>
<stop offset="0.37" stop-color="#A2C600"/>
<stop offset="0.45" stop-color="#C8C903"/>
<stop offset="0.54" stop-color="#EBCB03"/>
<stop offset="0.62" stop-color="#F7CD07"/>
<stop offset="0.7" stop-color="#FDCD04"/>
<stop offset="0.77" stop-color="#FDCE05"/>
<stop offset="0.86" stop-color="#FFCE0A"/>
</radialGradient>
<radialGradient id="paint1_radial_685_63307" cx="0" cy="0" r="1" gradientUnits="userSpaceOnUse" gradientTransform="translate(18.1412 8.17084) scale(5.81161 7.48464)">
<stop offset="0.41" stop-color="#FB4E5A"/>
<stop offset="1" stop-color="#FF4540"/>
</radialGradient>
<radialGradient id="paint2_radial_685_63307" cx="0" cy="0" r="1" gradientUnits="userSpaceOnUse" gradientTransform="translate(14.9171 2.42367) rotate(151.02) scale(9.29283 12.6242)">
<stop offset="0.23" stop-color="#FF4541"/>
<stop offset="0.31" stop-color="#FF4540"/>
<stop offset="0.46" stop-color="#FF4640"/>
<stop offset="0.54" stop-color="#FF473F"/>
<stop offset="0.7" stop-color="#FF5138"/>
<stop offset="0.77" stop-color="#FF5B33"/>
<stop offset="0.86" stop-color="#FF6C29"/>
<stop offset="1" stop-color="#FF8C18"/>
</radialGradient>
<radialGradient id="paint3_radial_685_63307" cx="0" cy="0" r="1" gradientUnits="userSpaceOnUse" gradientTransform="translate(12.6782 19.3958) rotate(-127.45) scale(24.2402 8.94215)">
<stop offset="0.13" stop-color="#0CBA65"/>
<stop offset="0.21" stop-color="#0BB86D"/>
<stop offset="0.3" stop-color="#09B479"/>
<stop offset="0.4" stop-color="#08AD93"/>
<stop offset="0.48" stop-color="#0AA6A9"/>
<stop offset="0.57" stop-color="#0D9CC6"/>
<stop offset="0.67" stop-color="#1893DD"/>
<stop offset="0.77" stop-color="#258BF1"/>
<stop offset="0.86" stop-color="#3086FF"/>
</radialGradient>
<radialGradient id="paint4_radial_685_63307" cx="0" cy="0" r="1" gradientUnits="userSpaceOnUse" gradientTransform="translate(11.9075 5.06505) rotate(96.62) scale(9.07366 12.5365)">
<stop offset="0.37" stop-color="#FF4E3A"/>
<stop offset="0.46" stop-color="#FF8A1B"/>
<stop offset="0.54" stop-color="#FFA312"/>
<stop offset="0.62" stop-color="#FFB60C"/>
<stop offset="0.77" stop-color="#FFCD0A"/>
<stop offset="0.86" stop-color="#FECF0A"/>
<stop offset="0.92" stop-color="#FECF08"/>
<stop offset="1" stop-color="#FDCD01"/>
</radialGradient>
<radialGradient id="paint5_radial_685_63307" cx="0" cy="0" r="1" gradientUnits="userSpaceOnUse" gradientTransform="translate(10.357 5.02061) rotate(132.12) scale(4.48757 12.6812)">
<stop offset="0.32" stop-color="#FF4C3C"/>
<stop offset="0.6" stop-color="#FF692C"/>
<stop offset="0.73" stop-color="#FF7825"/>
<stop offset="0.88" stop-color="#FF8D1B"/>
<stop offset="1" stop-color="#FF9F13"/>
</radialGradient>
<radialGradient id="paint6_radial_685_63307" cx="0" cy="0" r="1" gradientUnits="userSpaceOnUse" gradientTransform="translate(14.9015 21.5895) rotate(-151.02) scale(9.29283 12.6242)">
<stop offset="0.23" stop-color="#0FBC5F"/>
<stop offset="0.31" stop-color="#0FBC5F"/>
<stop offset="0.37" stop-color="#0FBC5E"/>
<stop offset="0.46" stop-color="#0FBC5D"/>
<stop offset="0.54" stop-color="#12BC58"/>
<stop offset="0.7" stop-color="#28BF3C"/>
<stop offset="0.77" stop-color="#38C02B"/>
<stop offset="0.86" stop-color="#52C218"/>
<stop offset="0.92" stop-color="#67C30F"/>
<stop offset="1" stop-color="#86C504"/>
</radialGradient>
<linearGradient id="paint7_linear_685_63307" x1="11.6843" y1="18.6743" x2="13.7318" y2="18.6743" gradientUnits="userSpaceOnUse">
<stop stop-color="#0FBC5C"/>
<stop offset="1" stop-color="#0CBA65"/>
</linearGradient>
<clipPath id="clip0_685_63307">
<rect width="16.4485" height="16.8" fill="white" transform="translate(4.27576 3.59998)"/>
</clipPath>
</defs>
</svg>
