<svg width="24" height="24" viewBox="0 0 24 24" fill="none" xmlns="http://www.w3.org/2000/svg">
<path d="M12 14.9681V17.0485" stroke="black" stroke-width="1.5" stroke-linecap="round" stroke-linejoin="round"/>
<path d="M16.4478 10.4804V8.46824C16.4176 6.10952 14.4004 4.2212 11.9442 4.25096C9.53778 4.27976 7.59168 6.14024 7.55078 8.44904V10.4804" stroke="black" stroke-width="1.5" stroke-linecap="round" stroke-linejoin="round"/>
<path d="M9.30375 21.573H14.6956C16.2909 21.573 17.0886 21.573 17.7043 21.2889C18.319 21.0057 18.8148 20.5295 19.11 19.9401C19.4056 19.3487 19.4056 18.5826 19.4056 17.0514V15.0047C19.4056 13.4735 19.4056 12.7074 19.11 12.117C18.8148 11.5266 18.319 11.0505 17.7043 10.7673C17.0886 10.4831 16.2909 10.4831 14.6956 10.4831H9.30375C7.70845 10.4831 6.91075 10.4831 6.29515 10.7673C5.68035 11.0505 5.18455 11.5266 4.88935 12.117C4.59375 12.7074 4.59375 13.4735 4.59375 15.0047V17.0514C4.59375 18.5826 4.59375 19.3487 4.88935 19.9401C5.18455 20.5295 5.68035 21.0057 6.29515 21.2889C6.91075 21.573 7.70845 21.573 9.30375 21.573Z" stroke="black" stroke-width="1.5" stroke-linecap="round" stroke-linejoin="round"/>
</svg>
