<svg width="26" height="26" viewBox="0 0 26 26" fill="none" xmlns="http://www.w3.org/2000/svg">
<rect x="0.5" y="0.5" width="25" height="25" rx="12.5" fill="#181C1F"/>
<rect x="0.5" y="0.5" width="25" height="25" rx="12.5" stroke="white"/>
<path d="M18 8.5H16.2675L15.4156 7.2225C15.37 7.15409 15.3082 7.098 15.2357 7.05919C15.1632 7.02038 15.0822 7.00005 15 7H11C10.9178 7.00005 10.8368 7.02038 10.7643 7.05919C10.6918 7.098 10.63 7.15409 10.5844 7.2225L9.73188 8.5H8C7.60218 8.5 7.22064 8.65804 6.93934 8.93934C6.65804 9.22064 6.5 9.60218 6.5 10V17C6.5 17.3978 6.65804 17.7794 6.93934 18.0607C7.22064 18.342 7.60218 18.5 8 18.5H18C18.3978 18.5 18.7794 18.342 19.0607 18.0607C19.342 17.7794 19.5 17.3978 19.5 17V10C19.5 9.60218 19.342 9.22064 19.0607 8.93934C18.7794 8.65804 18.3978 8.5 18 8.5ZM15.25 13.25C15.25 13.695 15.118 14.13 14.8708 14.5C14.6236 14.87 14.2722 15.1584 13.861 15.3287C13.4499 15.499 12.9975 15.5436 12.561 15.4568C12.1246 15.37 11.7237 15.1557 11.409 14.841C11.0943 14.5263 10.8801 14.1254 10.7932 13.689C10.7064 13.2525 10.751 12.8001 10.9213 12.389C11.0916 11.9778 11.38 11.6264 11.75 11.3792C12.12 11.132 12.555 11 13 11C13.5967 11 14.169 11.2371 14.591 11.659C15.0129 12.081 15.25 12.6533 15.25 13.25Z" fill="white"/>
</svg>
