<svg width="17" height="16" viewBox="0 0 17 16" fill="none" xmlns="http://www.w3.org/2000/svg">
<path d="M13.7067 3.26841C12.7212 2.81741 11.6807 2.49691 10.6122 2.31641C10.4662 2.57791 10.3337 2.84691 10.2157 3.12241C9.07721 2.95091 7.91971 2.95091 6.78121 3.12241C6.66321 2.84691 6.53121 2.57791 6.38471 2.31641C5.31521 2.49891 4.27421 2.81941 3.28771 3.27091C1.32921 6.16841 0.79821 8.99391 1.06371 11.7794C2.21071 12.6269 3.49421 13.2714 4.85921 13.6849C5.16671 13.2714 5.43821 12.8329 5.67221 12.3739C5.22821 12.2079 4.80021 12.0034 4.39221 11.7629C4.49971 11.6849 4.60471 11.6049 4.70621 11.5269C7.10921 12.6569 9.89121 12.6569 12.2947 11.5269C12.3972 11.6109 12.5022 11.6909 12.6087 11.7629C12.2002 12.0044 11.7707 12.2089 11.3262 12.3754C11.5597 12.8344 11.8317 13.2724 12.1392 13.6849C13.5052 13.2729 14.7897 12.6289 15.9372 11.7809C16.2487 8.55041 15.4047 5.75091 13.7067 3.26841ZM6.00871 10.0664C5.26921 10.0664 4.65771 9.39491 4.65771 8.56941C4.65771 7.74391 5.24771 7.06641 6.00621 7.06641C6.76471 7.06641 7.37121 7.74341 7.35821 8.56941C7.34521 9.39541 6.76221 10.0664 6.00871 10.0664ZM10.9922 10.0664C10.2512 10.0664 9.64271 9.39491 9.64271 8.56941C9.64271 7.74391 10.2327 7.06641 10.9922 7.06641C11.7517 7.06641 12.3537 7.74341 12.3407 8.56941C12.3277 9.39541 11.7462 10.0664 10.9922 10.0664Z" fill="black" fill-opacity="0.6"/>
</svg>
