<svg width="20" height="20" viewBox="0 0 20 20" fill="none" xmlns="http://www.w3.org/2000/svg">
<g clip-path="url(#clip0_2226_23753)">
<path d="M10.2246 11.7012H8.97949C8.98275 11.4082 9.00553 11.1559 9.04785 10.9443C9.09342 10.7295 9.16992 10.5358 9.27734 10.3633C9.38802 10.1908 9.5345 10.0199 9.7168 9.85059C9.86979 9.71387 10.0033 9.58366 10.1172 9.45996C10.2311 9.33626 10.3206 9.20931 10.3857 9.0791C10.4508 8.94564 10.4834 8.79753 10.4834 8.63477C10.4834 8.44596 10.4541 8.28971 10.3955 8.16602C10.3402 8.03906 10.2555 7.94303 10.1416 7.87793C10.0309 7.81283 9.89095 7.78027 9.72168 7.78027C9.58171 7.78027 9.4515 7.8112 9.33105 7.87305C9.21061 7.93164 9.11133 8.02279 9.0332 8.14648C8.95833 8.27018 8.91927 8.43294 8.91602 8.63477H7.5C7.50977 8.1888 7.6123 7.82096 7.80762 7.53125C8.00618 7.23828 8.27148 7.02181 8.60352 6.88184C8.93555 6.73861 9.30827 6.66699 9.72168 6.66699C10.1774 6.66699 10.568 6.74186 10.8936 6.8916C11.2191 7.03809 11.4681 7.25456 11.6406 7.54102C11.8132 7.82422 11.8994 8.16927 11.8994 8.57617C11.8994 8.85937 11.8441 9.11165 11.7334 9.33301C11.6227 9.55111 11.4779 9.75456 11.2988 9.94336C11.1198 10.1322 10.9229 10.3275 10.708 10.5293C10.5225 10.6953 10.3955 10.8695 10.3271 11.0518C10.262 11.234 10.2279 11.4505 10.2246 11.7012ZM8.83301 13.21C8.83301 13.0016 8.90462 12.8291 9.04785 12.6924C9.19108 12.5524 9.38314 12.4824 9.62402 12.4824C9.86165 12.4824 10.0521 12.5524 10.1953 12.6924C10.3418 12.8291 10.415 13.0016 10.415 13.21C10.415 13.4118 10.3418 13.5827 10.1953 13.7227C10.0521 13.8626 9.86165 13.9326 9.62402 13.9326C9.38314 13.9326 9.19108 13.8626 9.04785 13.7227C8.90462 13.5827 8.83301 13.4118 8.83301 13.21Z" fill="#181C1F"/>
<circle cx="9.99996" cy="10.0003" r="7.70833" stroke="#181C1F" stroke-width="1.25"/>
</g>
<defs>
<clipPath id="clip0_2226_23753">
<rect width="20" height="20" fill="white"/>
</clipPath>
</defs>
</svg>
