<svg width="16" height="16" viewBox="0 0 16 16" fill="none" xmlns="http://www.w3.org/2000/svg">
<path d="M11.332 11.3335H14.6654V12.6668H12.6654V14.6668H11.332V11.3335ZM4.66536 4.66683H1.33203V3.3335H3.33203V1.3335H4.66536V4.66683ZM12.2414 10.3572L11.2985 9.41436L12.2414 8.47156C13.5431 7.16983 13.5431 5.05927 12.2414 3.75752C10.9396 2.45578 8.82903 2.45578 7.5273 3.75752L6.58448 4.70033L5.64168 3.75752L6.58448 2.81472C8.4069 0.992269 11.3617 0.992269 13.1842 2.81472C15.0066 4.63716 15.0066 7.59196 13.1842 9.41436L12.2414 10.3572ZM10.3557 12.2428L9.4129 13.1856C7.5905 15.008 4.6357 15.008 2.81325 13.1856C0.990805 11.3632 0.990805 8.40836 2.81325 6.58595L3.75606 5.64314L4.69886 6.58595L3.75606 7.52876C2.45431 8.8305 2.45431 10.941 3.75606 12.2428C5.0578 13.5446 7.16836 13.5446 8.4701 12.2428L9.4129 11.3L10.3557 12.2428ZM9.8843 5.17174L10.8271 6.11454L6.11308 10.8286L5.17027 9.88576L9.8843 5.17174Z" fill="black" fill-opacity="0.6"/>
</svg>
